<?xml version="1.0" encoding="utf-8" standalone="no"?>
<!DOCTYPE svg PUBLIC "-//W3C//DTD SVG 1.1//EN"
  "http://www.w3.org/Graphics/SVG/1.1/DTD/svg11.dtd">
<svg xmlns:xlink="http://www.w3.org/1999/xlink" width="946.08pt" height="297.36pt" viewBox="0 0 946.08 297.36" xmlns="http://www.w3.org/2000/svg" version="1.1">
 <metadata>
  <rdf:RDF xmlns:dc="http://purl.org/dc/elements/1.1/" xmlns:cc="http://creativecommons.org/ns#" xmlns:rdf="http://www.w3.org/1999/02/22-rdf-syntax-ns#">
   <cc:Work>
    <dc:type rdf:resource="http://purl.org/dc/dcmitype/StillImage"/>
    <dc:date>2022-09-19T18:12:39.747687</dc:date>
    <dc:format>image/svg+xml</dc:format>
    <dc:creator>
     <cc:Agent>
      <dc:title>Matplotlib v3.5.2, https://matplotlib.org/</dc:title>
     </cc:Agent>
    </dc:creator>
   </cc:Work>
  </rdf:RDF>
 </metadata>
 <defs>
  <style type="text/css">*{stroke-linejoin: round; stroke-linecap: butt}</style>
 </defs>
 <g id="figure_1">
  <g id="patch_1">
   <path d="M 0 297.36 
L 946.08 297.36 
L 946.08 0 
L 0 0 
z
" style="fill: #ffffff"/>
  </g>
  <g id="axes_1">
   <g id="patch_2">
    <path d="M 118.26 264.6504 
L 851.472 264.6504 
L 851.472 35.6832 
L 118.26 35.6832 
z
" style="fill: #ffffff"/>
   </g>
   <g id="matplotlib.axis_1">
    <g id="xtick_1">
     <g id="line2d_1">
      <path d="M 151.587818 264.6504 
L 151.587818 35.6832 
" clip-path="url(#pad36d22a55)" style="fill: none; stroke-dasharray: 0.74,0.32; stroke-dashoffset: 0; stroke: #b0b0b0; stroke-width: 0.2"/>
     </g>
     <g id="line2d_2">
      <defs>
       <path id="m33baa604c3" d="M 0 0 
L 0 3.5 
" style="stroke: #000000; stroke-width: 0.8"/>
      </defs>
      <g>
       <use xlink:href="#m33baa604c3" x="151.587818" y="264.6504" style="stroke: #000000; stroke-width: 0.8"/>
      </g>
     </g>
     <g id="text_1">
      <!-- 25 -->
      <g transform="translate(145.225318 279.248838)scale(0.1 -0.1)">
       <defs>
        <path id="DejaVuSans-32" d="M 1228 531 
L 3431 531 
L 3431 0 
L 469 0 
L 469 531 
Q 828 903 1448 1529 
Q 2069 2156 2228 2338 
Q 2531 2678 2651 2914 
Q 2772 3150 2772 3378 
Q 2772 3750 2511 3984 
Q 2250 4219 1831 4219 
Q 1534 4219 1204 4116 
Q 875 4013 500 3803 
L 500 4441 
Q 881 4594 1212 4672 
Q 1544 4750 1819 4750 
Q 2544 4750 2975 4387 
Q 3406 4025 3406 3419 
Q 3406 3131 3298 2873 
Q 3191 2616 2906 2266 
Q 2828 2175 2409 1742 
Q 1991 1309 1228 531 
z
" transform="scale(0.015625)"/>
        <path id="DejaVuSans-35" d="M 691 4666 
L 3169 4666 
L 3169 4134 
L 1269 4134 
L 1269 2991 
Q 1406 3038 1543 3061 
Q 1681 3084 1819 3084 
Q 2600 3084 3056 2656 
Q 3513 2228 3513 1497 
Q 3513 744 3044 326 
Q 2575 -91 1722 -91 
Q 1428 -91 1123 -41 
Q 819 9 494 109 
L 494 744 
Q 775 591 1075 516 
Q 1375 441 1709 441 
Q 2250 441 2565 725 
Q 2881 1009 2881 1497 
Q 2881 1984 2565 2268 
Q 2250 2553 1709 2553 
Q 1456 2553 1204 2497 
Q 953 2441 691 2322 
L 691 4666 
z
" transform="scale(0.015625)"/>
       </defs>
       <use xlink:href="#DejaVuSans-32"/>
       <use xlink:href="#DejaVuSans-35" x="63.623047"/>
      </g>
     </g>
    </g>
    <g id="xtick_2">
     <g id="line2d_3">
      <path d="M 202.861385 264.6504 
L 202.861385 35.6832 
" clip-path="url(#pad36d22a55)" style="fill: none; stroke-dasharray: 0.74,0.32; stroke-dashoffset: 0; stroke: #b0b0b0; stroke-width: 0.2"/>
     </g>
     <g id="line2d_4">
      <g>
       <use xlink:href="#m33baa604c3" x="202.861385" y="264.6504" style="stroke: #000000; stroke-width: 0.8"/>
      </g>
     </g>
     <g id="text_2">
      <!-- 50 -->
      <g transform="translate(196.498885 279.248838)scale(0.1 -0.1)">
       <defs>
        <path id="DejaVuSans-30" d="M 2034 4250 
Q 1547 4250 1301 3770 
Q 1056 3291 1056 2328 
Q 1056 1369 1301 889 
Q 1547 409 2034 409 
Q 2525 409 2770 889 
Q 3016 1369 3016 2328 
Q 3016 3291 2770 3770 
Q 2525 4250 2034 4250 
z
M 2034 4750 
Q 2819 4750 3233 4129 
Q 3647 3509 3647 2328 
Q 3647 1150 3233 529 
Q 2819 -91 2034 -91 
Q 1250 -91 836 529 
Q 422 1150 422 2328 
Q 422 3509 836 4129 
Q 1250 4750 2034 4750 
z
" transform="scale(0.015625)"/>
       </defs>
       <use xlink:href="#DejaVuSans-35"/>
       <use xlink:href="#DejaVuSans-30" x="63.623047"/>
      </g>
     </g>
    </g>
    <g id="xtick_3">
     <g id="line2d_5">
      <path d="M 254.134951 264.6504 
L 254.134951 35.6832 
" clip-path="url(#pad36d22a55)" style="fill: none; stroke-dasharray: 0.74,0.32; stroke-dashoffset: 0; stroke: #b0b0b0; stroke-width: 0.2"/>
     </g>
     <g id="line2d_6">
      <g>
       <use xlink:href="#m33baa604c3" x="254.134951" y="264.6504" style="stroke: #000000; stroke-width: 0.8"/>
      </g>
     </g>
     <g id="text_3">
      <!-- 75 -->
      <g transform="translate(247.772451 279.248838)scale(0.1 -0.1)">
       <defs>
        <path id="DejaVuSans-37" d="M 525 4666 
L 3525 4666 
L 3525 4397 
L 1831 0 
L 1172 0 
L 2766 4134 
L 525 4134 
L 525 4666 
z
" transform="scale(0.015625)"/>
       </defs>
       <use xlink:href="#DejaVuSans-37"/>
       <use xlink:href="#DejaVuSans-35" x="63.623047"/>
      </g>
     </g>
    </g>
    <g id="xtick_4">
     <g id="line2d_7">
      <path d="M 305.408517 264.6504 
L 305.408517 35.6832 
" clip-path="url(#pad36d22a55)" style="fill: none; stroke-dasharray: 0.74,0.32; stroke-dashoffset: 0; stroke: #b0b0b0; stroke-width: 0.2"/>
     </g>
     <g id="line2d_8">
      <g>
       <use xlink:href="#m33baa604c3" x="305.408517" y="264.6504" style="stroke: #000000; stroke-width: 0.8"/>
      </g>
     </g>
     <g id="text_4">
      <!-- 100 -->
      <g transform="translate(295.864767 279.248838)scale(0.1 -0.1)">
       <defs>
        <path id="DejaVuSans-31" d="M 794 531 
L 1825 531 
L 1825 4091 
L 703 3866 
L 703 4441 
L 1819 4666 
L 2450 4666 
L 2450 531 
L 3481 531 
L 3481 0 
L 794 0 
L 794 531 
z
" transform="scale(0.015625)"/>
       </defs>
       <use xlink:href="#DejaVuSans-31"/>
       <use xlink:href="#DejaVuSans-30" x="63.623047"/>
       <use xlink:href="#DejaVuSans-30" x="127.246094"/>
      </g>
     </g>
    </g>
    <g id="xtick_5">
     <g id="line2d_9">
      <path d="M 356.682084 264.6504 
L 356.682084 35.6832 
" clip-path="url(#pad36d22a55)" style="fill: none; stroke-dasharray: 0.74,0.32; stroke-dashoffset: 0; stroke: #b0b0b0; stroke-width: 0.2"/>
     </g>
     <g id="line2d_10">
      <g>
       <use xlink:href="#m33baa604c3" x="356.682084" y="264.6504" style="stroke: #000000; stroke-width: 0.8"/>
      </g>
     </g>
     <g id="text_5">
      <!-- 125 -->
      <g transform="translate(347.138334 279.248838)scale(0.1 -0.1)">
       <use xlink:href="#DejaVuSans-31"/>
       <use xlink:href="#DejaVuSans-32" x="63.623047"/>
       <use xlink:href="#DejaVuSans-35" x="127.246094"/>
      </g>
     </g>
    </g>
    <g id="xtick_6">
     <g id="line2d_11">
      <path d="M 407.95565 264.6504 
L 407.95565 35.6832 
" clip-path="url(#pad36d22a55)" style="fill: none; stroke-dasharray: 0.74,0.32; stroke-dashoffset: 0; stroke: #b0b0b0; stroke-width: 0.2"/>
     </g>
     <g id="line2d_12">
      <g>
       <use xlink:href="#m33baa604c3" x="407.95565" y="264.6504" style="stroke: #000000; stroke-width: 0.8"/>
      </g>
     </g>
     <g id="text_6">
      <!-- 150 -->
      <g transform="translate(398.4119 279.248838)scale(0.1 -0.1)">
       <use xlink:href="#DejaVuSans-31"/>
       <use xlink:href="#DejaVuSans-35" x="63.623047"/>
       <use xlink:href="#DejaVuSans-30" x="127.246094"/>
      </g>
     </g>
    </g>
    <g id="xtick_7">
     <g id="line2d_13">
      <path d="M 459.229217 264.6504 
L 459.229217 35.6832 
" clip-path="url(#pad36d22a55)" style="fill: none; stroke-dasharray: 0.74,0.32; stroke-dashoffset: 0; stroke: #b0b0b0; stroke-width: 0.2"/>
     </g>
     <g id="line2d_14">
      <g>
       <use xlink:href="#m33baa604c3" x="459.229217" y="264.6504" style="stroke: #000000; stroke-width: 0.8"/>
      </g>
     </g>
     <g id="text_7">
      <!-- 175 -->
      <g transform="translate(449.685467 279.248838)scale(0.1 -0.1)">
       <use xlink:href="#DejaVuSans-31"/>
       <use xlink:href="#DejaVuSans-37" x="63.623047"/>
       <use xlink:href="#DejaVuSans-35" x="127.246094"/>
      </g>
     </g>
    </g>
    <g id="xtick_8">
     <g id="line2d_15">
      <path d="M 510.502783 264.6504 
L 510.502783 35.6832 
" clip-path="url(#pad36d22a55)" style="fill: none; stroke-dasharray: 0.74,0.32; stroke-dashoffset: 0; stroke: #b0b0b0; stroke-width: 0.2"/>
     </g>
     <g id="line2d_16">
      <g>
       <use xlink:href="#m33baa604c3" x="510.502783" y="264.6504" style="stroke: #000000; stroke-width: 0.8"/>
      </g>
     </g>
     <g id="text_8">
      <!-- 200 -->
      <g transform="translate(500.959033 279.248838)scale(0.1 -0.1)">
       <use xlink:href="#DejaVuSans-32"/>
       <use xlink:href="#DejaVuSans-30" x="63.623047"/>
       <use xlink:href="#DejaVuSans-30" x="127.246094"/>
      </g>
     </g>
    </g>
    <g id="xtick_9">
     <g id="line2d_17">
      <path d="M 561.77635 264.6504 
L 561.77635 35.6832 
" clip-path="url(#pad36d22a55)" style="fill: none; stroke-dasharray: 0.74,0.32; stroke-dashoffset: 0; stroke: #b0b0b0; stroke-width: 0.2"/>
     </g>
     <g id="line2d_18">
      <g>
       <use xlink:href="#m33baa604c3" x="561.77635" y="264.6504" style="stroke: #000000; stroke-width: 0.8"/>
      </g>
     </g>
     <g id="text_9">
      <!-- 225 -->
      <g transform="translate(552.2326 279.248838)scale(0.1 -0.1)">
       <use xlink:href="#DejaVuSans-32"/>
       <use xlink:href="#DejaVuSans-32" x="63.623047"/>
       <use xlink:href="#DejaVuSans-35" x="127.246094"/>
      </g>
     </g>
    </g>
    <g id="xtick_10">
     <g id="line2d_19">
      <path d="M 613.049916 264.6504 
L 613.049916 35.6832 
" clip-path="url(#pad36d22a55)" style="fill: none; stroke-dasharray: 0.74,0.32; stroke-dashoffset: 0; stroke: #b0b0b0; stroke-width: 0.2"/>
     </g>
     <g id="line2d_20">
      <g>
       <use xlink:href="#m33baa604c3" x="613.049916" y="264.6504" style="stroke: #000000; stroke-width: 0.8"/>
      </g>
     </g>
     <g id="text_10">
      <!-- 250 -->
      <g transform="translate(603.506166 279.248838)scale(0.1 -0.1)">
       <use xlink:href="#DejaVuSans-32"/>
       <use xlink:href="#DejaVuSans-35" x="63.623047"/>
       <use xlink:href="#DejaVuSans-30" x="127.246094"/>
      </g>
     </g>
    </g>
    <g id="xtick_11">
     <g id="line2d_21">
      <path d="M 664.323483 264.6504 
L 664.323483 35.6832 
" clip-path="url(#pad36d22a55)" style="fill: none; stroke-dasharray: 0.74,0.32; stroke-dashoffset: 0; stroke: #b0b0b0; stroke-width: 0.2"/>
     </g>
     <g id="line2d_22">
      <g>
       <use xlink:href="#m33baa604c3" x="664.323483" y="264.6504" style="stroke: #000000; stroke-width: 0.8"/>
      </g>
     </g>
     <g id="text_11">
      <!-- 275 -->
      <g transform="translate(654.779733 279.248838)scale(0.1 -0.1)">
       <use xlink:href="#DejaVuSans-32"/>
       <use xlink:href="#DejaVuSans-37" x="63.623047"/>
       <use xlink:href="#DejaVuSans-35" x="127.246094"/>
      </g>
     </g>
    </g>
    <g id="xtick_12">
     <g id="line2d_23">
      <path d="M 715.597049 264.6504 
L 715.597049 35.6832 
" clip-path="url(#pad36d22a55)" style="fill: none; stroke-dasharray: 0.74,0.32; stroke-dashoffset: 0; stroke: #b0b0b0; stroke-width: 0.2"/>
     </g>
     <g id="line2d_24">
      <g>
       <use xlink:href="#m33baa604c3" x="715.597049" y="264.6504" style="stroke: #000000; stroke-width: 0.8"/>
      </g>
     </g>
     <g id="text_12">
      <!-- 300 -->
      <g transform="translate(706.053299 279.248838)scale(0.1 -0.1)">
       <defs>
        <path id="DejaVuSans-33" d="M 2597 2516 
Q 3050 2419 3304 2112 
Q 3559 1806 3559 1356 
Q 3559 666 3084 287 
Q 2609 -91 1734 -91 
Q 1441 -91 1130 -33 
Q 819 25 488 141 
L 488 750 
Q 750 597 1062 519 
Q 1375 441 1716 441 
Q 2309 441 2620 675 
Q 2931 909 2931 1356 
Q 2931 1769 2642 2001 
Q 2353 2234 1838 2234 
L 1294 2234 
L 1294 2753 
L 1863 2753 
Q 2328 2753 2575 2939 
Q 2822 3125 2822 3475 
Q 2822 3834 2567 4026 
Q 2313 4219 1838 4219 
Q 1578 4219 1281 4162 
Q 984 4106 628 3988 
L 628 4550 
Q 988 4650 1302 4700 
Q 1616 4750 1894 4750 
Q 2613 4750 3031 4423 
Q 3450 4097 3450 3541 
Q 3450 3153 3228 2886 
Q 3006 2619 2597 2516 
z
" transform="scale(0.015625)"/>
       </defs>
       <use xlink:href="#DejaVuSans-33"/>
       <use xlink:href="#DejaVuSans-30" x="63.623047"/>
       <use xlink:href="#DejaVuSans-30" x="127.246094"/>
      </g>
     </g>
    </g>
    <g id="xtick_13">
     <g id="line2d_25">
      <path d="M 766.870615 264.6504 
L 766.870615 35.6832 
" clip-path="url(#pad36d22a55)" style="fill: none; stroke-dasharray: 0.74,0.32; stroke-dashoffset: 0; stroke: #b0b0b0; stroke-width: 0.2"/>
     </g>
     <g id="line2d_26">
      <g>
       <use xlink:href="#m33baa604c3" x="766.870615" y="264.6504" style="stroke: #000000; stroke-width: 0.8"/>
      </g>
     </g>
     <g id="text_13">
      <!-- 325 -->
      <g transform="translate(757.326865 279.248838)scale(0.1 -0.1)">
       <use xlink:href="#DejaVuSans-33"/>
       <use xlink:href="#DejaVuSans-32" x="63.623047"/>
       <use xlink:href="#DejaVuSans-35" x="127.246094"/>
      </g>
     </g>
    </g>
    <g id="xtick_14">
     <g id="line2d_27">
      <path d="M 818.144182 264.6504 
L 818.144182 35.6832 
" clip-path="url(#pad36d22a55)" style="fill: none; stroke-dasharray: 0.74,0.32; stroke-dashoffset: 0; stroke: #b0b0b0; stroke-width: 0.2"/>
     </g>
     <g id="line2d_28">
      <g>
       <use xlink:href="#m33baa604c3" x="818.144182" y="264.6504" style="stroke: #000000; stroke-width: 0.8"/>
      </g>
     </g>
     <g id="text_14">
      <!-- 350 -->
      <g transform="translate(808.600432 279.248838)scale(0.1 -0.1)">
       <use xlink:href="#DejaVuSans-33"/>
       <use xlink:href="#DejaVuSans-35" x="63.623047"/>
       <use xlink:href="#DejaVuSans-30" x="127.246094"/>
      </g>
     </g>
    </g>
    <g id="text_15">
     <!-- UEs -->
     <g transform="translate(475.442563 292.926963)scale(0.1 -0.1)">
      <defs>
       <path id="DejaVuSans-55" d="M 556 4666 
L 1191 4666 
L 1191 1831 
Q 1191 1081 1462 751 
Q 1734 422 2344 422 
Q 2950 422 3222 751 
Q 3494 1081 3494 1831 
L 3494 4666 
L 4128 4666 
L 4128 1753 
Q 4128 841 3676 375 
Q 3225 -91 2344 -91 
Q 1459 -91 1007 375 
Q 556 841 556 1753 
L 556 4666 
z
" transform="scale(0.015625)"/>
       <path id="DejaVuSans-45" d="M 628 4666 
L 3578 4666 
L 3578 4134 
L 1259 4134 
L 1259 2753 
L 3481 2753 
L 3481 2222 
L 1259 2222 
L 1259 531 
L 3634 531 
L 3634 0 
L 628 0 
L 628 4666 
z
" transform="scale(0.015625)"/>
       <path id="DejaVuSans-73" d="M 2834 3397 
L 2834 2853 
Q 2591 2978 2328 3040 
Q 2066 3103 1784 3103 
Q 1356 3103 1142 2972 
Q 928 2841 928 2578 
Q 928 2378 1081 2264 
Q 1234 2150 1697 2047 
L 1894 2003 
Q 2506 1872 2764 1633 
Q 3022 1394 3022 966 
Q 3022 478 2636 193 
Q 2250 -91 1575 -91 
Q 1294 -91 989 -36 
Q 684 19 347 128 
L 347 722 
Q 666 556 975 473 
Q 1284 391 1588 391 
Q 1994 391 2212 530 
Q 2431 669 2431 922 
Q 2431 1156 2273 1281 
Q 2116 1406 1581 1522 
L 1381 1569 
Q 847 1681 609 1914 
Q 372 2147 372 2553 
Q 372 3047 722 3315 
Q 1072 3584 1716 3584 
Q 2034 3584 2315 3537 
Q 2597 3491 2834 3397 
z
" transform="scale(0.015625)"/>
      </defs>
      <use xlink:href="#DejaVuSans-55"/>
      <use xlink:href="#DejaVuSans-45" x="73.193359"/>
      <use xlink:href="#DejaVuSans-73" x="136.376953"/>
     </g>
    </g>
   </g>
   <g id="matplotlib.axis_2">
    <g id="ytick_1">
     <g id="line2d_29">
      <path d="M 118.26 231.848175 
L 851.472 231.848175 
" clip-path="url(#pad36d22a55)" style="fill: none; stroke-dasharray: 0.74,0.32; stroke-dashoffset: 0; stroke: #b0b0b0; stroke-width: 0.2"/>
     </g>
     <g id="line2d_30">
      <defs>
       <path id="m183f95ec51" d="M 0 0 
L -3.5 0 
" style="stroke: #000000; stroke-width: 0.8"/>
      </defs>
      <g>
       <use xlink:href="#m183f95ec51" x="118.26" y="231.848175" style="stroke: #000000; stroke-width: 0.8"/>
      </g>
     </g>
     <g id="text_16">
      <!-- 0.004 -->
      <g transform="translate(82.631875 235.647394)scale(0.1 -0.1)">
       <defs>
        <path id="DejaVuSans-2e" d="M 684 794 
L 1344 794 
L 1344 0 
L 684 0 
L 684 794 
z
" transform="scale(0.015625)"/>
        <path id="DejaVuSans-34" d="M 2419 4116 
L 825 1625 
L 2419 1625 
L 2419 4116 
z
M 2253 4666 
L 3047 4666 
L 3047 1625 
L 3713 1625 
L 3713 1100 
L 3047 1100 
L 3047 0 
L 2419 0 
L 2419 1100 
L 313 1100 
L 313 1709 
L 2253 4666 
z
" transform="scale(0.015625)"/>
       </defs>
       <use xlink:href="#DejaVuSans-30"/>
       <use xlink:href="#DejaVuSans-2e" x="63.623047"/>
       <use xlink:href="#DejaVuSans-30" x="95.410156"/>
       <use xlink:href="#DejaVuSans-30" x="159.033203"/>
       <use xlink:href="#DejaVuSans-34" x="222.65625"/>
      </g>
     </g>
    </g>
    <g id="ytick_2">
     <g id="line2d_31">
      <path d="M 118.26 184.705996 
L 851.472 184.705996 
" clip-path="url(#pad36d22a55)" style="fill: none; stroke-dasharray: 0.74,0.32; stroke-dashoffset: 0; stroke: #b0b0b0; stroke-width: 0.2"/>
     </g>
     <g id="line2d_32">
      <g>
       <use xlink:href="#m183f95ec51" x="118.26" y="184.705996" style="stroke: #000000; stroke-width: 0.8"/>
      </g>
     </g>
     <g id="text_17">
      <!-- 0.005 -->
      <g transform="translate(82.631875 188.505214)scale(0.1 -0.1)">
       <use xlink:href="#DejaVuSans-30"/>
       <use xlink:href="#DejaVuSans-2e" x="63.623047"/>
       <use xlink:href="#DejaVuSans-30" x="95.410156"/>
       <use xlink:href="#DejaVuSans-30" x="159.033203"/>
       <use xlink:href="#DejaVuSans-35" x="222.65625"/>
      </g>
     </g>
    </g>
    <g id="ytick_3">
     <g id="line2d_33">
      <path d="M 118.26 137.563816 
L 851.472 137.563816 
" clip-path="url(#pad36d22a55)" style="fill: none; stroke-dasharray: 0.74,0.32; stroke-dashoffset: 0; stroke: #b0b0b0; stroke-width: 0.2"/>
     </g>
     <g id="line2d_34">
      <g>
       <use xlink:href="#m183f95ec51" x="118.26" y="137.563816" style="stroke: #000000; stroke-width: 0.8"/>
      </g>
     </g>
     <g id="text_18">
      <!-- 0.006 -->
      <g transform="translate(82.631875 141.363035)scale(0.1 -0.1)">
       <defs>
        <path id="DejaVuSans-36" d="M 2113 2584 
Q 1688 2584 1439 2293 
Q 1191 2003 1191 1497 
Q 1191 994 1439 701 
Q 1688 409 2113 409 
Q 2538 409 2786 701 
Q 3034 994 3034 1497 
Q 3034 2003 2786 2293 
Q 2538 2584 2113 2584 
z
M 3366 4563 
L 3366 3988 
Q 3128 4100 2886 4159 
Q 2644 4219 2406 4219 
Q 1781 4219 1451 3797 
Q 1122 3375 1075 2522 
Q 1259 2794 1537 2939 
Q 1816 3084 2150 3084 
Q 2853 3084 3261 2657 
Q 3669 2231 3669 1497 
Q 3669 778 3244 343 
Q 2819 -91 2113 -91 
Q 1303 -91 875 529 
Q 447 1150 447 2328 
Q 447 3434 972 4092 
Q 1497 4750 2381 4750 
Q 2619 4750 2861 4703 
Q 3103 4656 3366 4563 
z
" transform="scale(0.015625)"/>
       </defs>
       <use xlink:href="#DejaVuSans-30"/>
       <use xlink:href="#DejaVuSans-2e" x="63.623047"/>
       <use xlink:href="#DejaVuSans-30" x="95.410156"/>
       <use xlink:href="#DejaVuSans-30" x="159.033203"/>
       <use xlink:href="#DejaVuSans-36" x="222.65625"/>
      </g>
     </g>
    </g>
    <g id="ytick_4">
     <g id="line2d_35">
      <path d="M 118.26 90.421636 
L 851.472 90.421636 
" clip-path="url(#pad36d22a55)" style="fill: none; stroke-dasharray: 0.74,0.32; stroke-dashoffset: 0; stroke: #b0b0b0; stroke-width: 0.2"/>
     </g>
     <g id="line2d_36">
      <g>
       <use xlink:href="#m183f95ec51" x="118.26" y="90.421636" style="stroke: #000000; stroke-width: 0.8"/>
      </g>
     </g>
     <g id="text_19">
      <!-- 0.007 -->
      <g transform="translate(82.631875 94.220855)scale(0.1 -0.1)">
       <use xlink:href="#DejaVuSans-30"/>
       <use xlink:href="#DejaVuSans-2e" x="63.623047"/>
       <use xlink:href="#DejaVuSans-30" x="95.410156"/>
       <use xlink:href="#DejaVuSans-30" x="159.033203"/>
       <use xlink:href="#DejaVuSans-37" x="222.65625"/>
      </g>
     </g>
    </g>
    <g id="ytick_5">
     <g id="line2d_37">
      <path d="M 118.26 43.279457 
L 851.472 43.279457 
" clip-path="url(#pad36d22a55)" style="fill: none; stroke-dasharray: 0.74,0.32; stroke-dashoffset: 0; stroke: #b0b0b0; stroke-width: 0.2"/>
     </g>
     <g id="line2d_38">
      <g>
       <use xlink:href="#m183f95ec51" x="118.26" y="43.279457" style="stroke: #000000; stroke-width: 0.8"/>
      </g>
     </g>
     <g id="text_20">
      <!-- 0.008 -->
      <g transform="translate(82.631875 47.078676)scale(0.1 -0.1)">
       <defs>
        <path id="DejaVuSans-38" d="M 2034 2216 
Q 1584 2216 1326 1975 
Q 1069 1734 1069 1313 
Q 1069 891 1326 650 
Q 1584 409 2034 409 
Q 2484 409 2743 651 
Q 3003 894 3003 1313 
Q 3003 1734 2745 1975 
Q 2488 2216 2034 2216 
z
M 1403 2484 
Q 997 2584 770 2862 
Q 544 3141 544 3541 
Q 544 4100 942 4425 
Q 1341 4750 2034 4750 
Q 2731 4750 3128 4425 
Q 3525 4100 3525 3541 
Q 3525 3141 3298 2862 
Q 3072 2584 2669 2484 
Q 3125 2378 3379 2068 
Q 3634 1759 3634 1313 
Q 3634 634 3220 271 
Q 2806 -91 2034 -91 
Q 1263 -91 848 271 
Q 434 634 434 1313 
Q 434 1759 690 2068 
Q 947 2378 1403 2484 
z
M 1172 3481 
Q 1172 3119 1398 2916 
Q 1625 2713 2034 2713 
Q 2441 2713 2670 2916 
Q 2900 3119 2900 3481 
Q 2900 3844 2670 4047 
Q 2441 4250 2034 4250 
Q 1625 4250 1398 4047 
Q 1172 3844 1172 3481 
z
" transform="scale(0.015625)"/>
       </defs>
       <use xlink:href="#DejaVuSans-30"/>
       <use xlink:href="#DejaVuSans-2e" x="63.623047"/>
       <use xlink:href="#DejaVuSans-30" x="95.410156"/>
       <use xlink:href="#DejaVuSans-30" x="159.033203"/>
       <use xlink:href="#DejaVuSans-38" x="222.65625"/>
      </g>
     </g>
    </g>
    <g id="text_21">
     <!-- RTT in seconds -->
     <g transform="translate(76.552188 187.472269)rotate(-90)scale(0.1 -0.1)">
      <defs>
       <path id="DejaVuSans-52" d="M 2841 2188 
Q 3044 2119 3236 1894 
Q 3428 1669 3622 1275 
L 4263 0 
L 3584 0 
L 2988 1197 
Q 2756 1666 2539 1819 
Q 2322 1972 1947 1972 
L 1259 1972 
L 1259 0 
L 628 0 
L 628 4666 
L 2053 4666 
Q 2853 4666 3247 4331 
Q 3641 3997 3641 3322 
Q 3641 2881 3436 2590 
Q 3231 2300 2841 2188 
z
M 1259 4147 
L 1259 2491 
L 2053 2491 
Q 2509 2491 2742 2702 
Q 2975 2913 2975 3322 
Q 2975 3731 2742 3939 
Q 2509 4147 2053 4147 
L 1259 4147 
z
" transform="scale(0.015625)"/>
       <path id="DejaVuSans-54" d="M -19 4666 
L 3928 4666 
L 3928 4134 
L 2272 4134 
L 2272 0 
L 1638 0 
L 1638 4134 
L -19 4134 
L -19 4666 
z
" transform="scale(0.015625)"/>
       <path id="DejaVuSans-20" transform="scale(0.015625)"/>
       <path id="DejaVuSans-69" d="M 603 3500 
L 1178 3500 
L 1178 0 
L 603 0 
L 603 3500 
z
M 603 4863 
L 1178 4863 
L 1178 4134 
L 603 4134 
L 603 4863 
z
" transform="scale(0.015625)"/>
       <path id="DejaVuSans-6e" d="M 3513 2113 
L 3513 0 
L 2938 0 
L 2938 2094 
Q 2938 2591 2744 2837 
Q 2550 3084 2163 3084 
Q 1697 3084 1428 2787 
Q 1159 2491 1159 1978 
L 1159 0 
L 581 0 
L 581 3500 
L 1159 3500 
L 1159 2956 
Q 1366 3272 1645 3428 
Q 1925 3584 2291 3584 
Q 2894 3584 3203 3211 
Q 3513 2838 3513 2113 
z
" transform="scale(0.015625)"/>
       <path id="DejaVuSans-65" d="M 3597 1894 
L 3597 1613 
L 953 1613 
Q 991 1019 1311 708 
Q 1631 397 2203 397 
Q 2534 397 2845 478 
Q 3156 559 3463 722 
L 3463 178 
Q 3153 47 2828 -22 
Q 2503 -91 2169 -91 
Q 1331 -91 842 396 
Q 353 884 353 1716 
Q 353 2575 817 3079 
Q 1281 3584 2069 3584 
Q 2775 3584 3186 3129 
Q 3597 2675 3597 1894 
z
M 3022 2063 
Q 3016 2534 2758 2815 
Q 2500 3097 2075 3097 
Q 1594 3097 1305 2825 
Q 1016 2553 972 2059 
L 3022 2063 
z
" transform="scale(0.015625)"/>
       <path id="DejaVuSans-63" d="M 3122 3366 
L 3122 2828 
Q 2878 2963 2633 3030 
Q 2388 3097 2138 3097 
Q 1578 3097 1268 2742 
Q 959 2388 959 1747 
Q 959 1106 1268 751 
Q 1578 397 2138 397 
Q 2388 397 2633 464 
Q 2878 531 3122 666 
L 3122 134 
Q 2881 22 2623 -34 
Q 2366 -91 2075 -91 
Q 1284 -91 818 406 
Q 353 903 353 1747 
Q 353 2603 823 3093 
Q 1294 3584 2113 3584 
Q 2378 3584 2631 3529 
Q 2884 3475 3122 3366 
z
" transform="scale(0.015625)"/>
       <path id="DejaVuSans-6f" d="M 1959 3097 
Q 1497 3097 1228 2736 
Q 959 2375 959 1747 
Q 959 1119 1226 758 
Q 1494 397 1959 397 
Q 2419 397 2687 759 
Q 2956 1122 2956 1747 
Q 2956 2369 2687 2733 
Q 2419 3097 1959 3097 
z
M 1959 3584 
Q 2709 3584 3137 3096 
Q 3566 2609 3566 1747 
Q 3566 888 3137 398 
Q 2709 -91 1959 -91 
Q 1206 -91 779 398 
Q 353 888 353 1747 
Q 353 2609 779 3096 
Q 1206 3584 1959 3584 
z
" transform="scale(0.015625)"/>
       <path id="DejaVuSans-64" d="M 2906 2969 
L 2906 4863 
L 3481 4863 
L 3481 0 
L 2906 0 
L 2906 525 
Q 2725 213 2448 61 
Q 2172 -91 1784 -91 
Q 1150 -91 751 415 
Q 353 922 353 1747 
Q 353 2572 751 3078 
Q 1150 3584 1784 3584 
Q 2172 3584 2448 3432 
Q 2725 3281 2906 2969 
z
M 947 1747 
Q 947 1113 1208 752 
Q 1469 391 1925 391 
Q 2381 391 2643 752 
Q 2906 1113 2906 1747 
Q 2906 2381 2643 2742 
Q 2381 3103 1925 3103 
Q 1469 3103 1208 2742 
Q 947 2381 947 1747 
z
" transform="scale(0.015625)"/>
      </defs>
      <use xlink:href="#DejaVuSans-52"/>
      <use xlink:href="#DejaVuSans-54" x="62.232422"/>
      <use xlink:href="#DejaVuSans-54" x="121.566406"/>
      <use xlink:href="#DejaVuSans-20" x="182.650391"/>
      <use xlink:href="#DejaVuSans-69" x="214.4375"/>
      <use xlink:href="#DejaVuSans-6e" x="242.220703"/>
      <use xlink:href="#DejaVuSans-20" x="305.599609"/>
      <use xlink:href="#DejaVuSans-73" x="337.386719"/>
      <use xlink:href="#DejaVuSans-65" x="389.486328"/>
      <use xlink:href="#DejaVuSans-63" x="451.009766"/>
      <use xlink:href="#DejaVuSans-6f" x="505.990234"/>
      <use xlink:href="#DejaVuSans-6e" x="567.171875"/>
      <use xlink:href="#DejaVuSans-64" x="630.550781"/>
      <use xlink:href="#DejaVuSans-73" x="694.027344"/>
     </g>
    </g>
   </g>
   <g id="line2d_39">
    <path d="M 151.587818 82.600586 
L 202.861385 82.252532 
L 254.134951 80.79763 
L 305.408517 78.495329 
L 356.682084 79.937007 
L 407.95565 78.367144 
L 459.229217 74.42509 
L 510.502783 72.292414 
L 561.77635 72.774172 
L 613.049916 68.511483 
L 664.323483 59.780602 
L 715.597049 50.629385 
L 766.870615 59.402034 
L 818.144182 46.0908 
" clip-path="url(#pad36d22a55)" style="fill: none; stroke-dasharray: 3.7,1.6; stroke-dashoffset: 0; stroke: #1f77b4"/>
    <defs>
     <path id="mfe3fdeaed1" d="M 0 3.5 
C 0.928211 3.5 1.81853 3.131218 2.474874 2.474874 
C 3.131218 1.81853 3.5 0.928211 3.5 0 
C 3.5 -0.928211 3.131218 -1.81853 2.474874 -2.474874 
C 1.81853 -3.131218 0.928211 -3.5 0 -3.5 
C -0.928211 -3.5 -1.81853 -3.131218 -2.474874 -2.474874 
C -3.131218 -1.81853 -3.5 -0.928211 -3.5 0 
C -3.5 0.928211 -3.131218 1.81853 -2.474874 2.474874 
C -1.81853 3.131218 -0.928211 3.5 0 3.5 
z
" style="stroke: #1f77b4"/>
    </defs>
    <g clip-path="url(#pad36d22a55)">
     <use xlink:href="#mfe3fdeaed1" x="151.587818" y="82.600586" style="fill: #1f77b4; stroke: #1f77b4"/>
     <use xlink:href="#mfe3fdeaed1" x="202.861385" y="82.252532" style="fill: #1f77b4; stroke: #1f77b4"/>
     <use xlink:href="#mfe3fdeaed1" x="254.134951" y="80.79763" style="fill: #1f77b4; stroke: #1f77b4"/>
     <use xlink:href="#mfe3fdeaed1" x="305.408517" y="78.495329" style="fill: #1f77b4; stroke: #1f77b4"/>
     <use xlink:href="#mfe3fdeaed1" x="356.682084" y="79.937007" style="fill: #1f77b4; stroke: #1f77b4"/>
     <use xlink:href="#mfe3fdeaed1" x="407.95565" y="78.367144" style="fill: #1f77b4; stroke: #1f77b4"/>
     <use xlink:href="#mfe3fdeaed1" x="459.229217" y="74.42509" style="fill: #1f77b4; stroke: #1f77b4"/>
     <use xlink:href="#mfe3fdeaed1" x="510.502783" y="72.292414" style="fill: #1f77b4; stroke: #1f77b4"/>
     <use xlink:href="#mfe3fdeaed1" x="561.77635" y="72.774172" style="fill: #1f77b4; stroke: #1f77b4"/>
     <use xlink:href="#mfe3fdeaed1" x="613.049916" y="68.511483" style="fill: #1f77b4; stroke: #1f77b4"/>
     <use xlink:href="#mfe3fdeaed1" x="664.323483" y="59.780602" style="fill: #1f77b4; stroke: #1f77b4"/>
     <use xlink:href="#mfe3fdeaed1" x="715.597049" y="50.629385" style="fill: #1f77b4; stroke: #1f77b4"/>
     <use xlink:href="#mfe3fdeaed1" x="766.870615" y="59.402034" style="fill: #1f77b4; stroke: #1f77b4"/>
     <use xlink:href="#mfe3fdeaed1" x="818.144182" y="46.0908" style="fill: #1f77b4; stroke: #1f77b4"/>
    </g>
   </g>
   <g id="line2d_40">
    <path d="M 151.587818 84.517649 
L 202.861385 79.995935 
L 254.134951 80.128847 
L 305.408517 79.636594 
L 356.682084 78.284551 
L 407.95565 78.580339 
L 459.229217 79.161504 
L 510.502783 74.905238 
L 561.77635 77.279762 
L 613.049916 68.504317 
L 664.323483 71.684699 
L 715.597049 59.671464 
L 766.870615 61.893897 
L 818.144182 59.621679 
" clip-path="url(#pad36d22a55)" style="fill: none; stroke-dasharray: 3.7,1.6; stroke-dashoffset: 0; stroke: #ff7f0e"/>
    <defs>
     <path id="m919dc234cf" d="M -1.75 3.5 
L 0 1.75 
L 1.75 3.5 
L 3.5 1.75 
L 1.75 0 
L 3.5 -1.75 
L 1.75 -3.5 
L 0 -1.75 
L -1.75 -3.5 
L -3.5 -1.75 
L -1.75 0 
L -3.5 1.75 
z
" style="stroke: #ff7f0e; stroke-linejoin: miter"/>
    </defs>
    <g clip-path="url(#pad36d22a55)">
     <use xlink:href="#m919dc234cf" x="151.587818" y="84.517649" style="fill: #ff7f0e; stroke: #ff7f0e; stroke-linejoin: miter"/>
     <use xlink:href="#m919dc234cf" x="202.861385" y="79.995935" style="fill: #ff7f0e; stroke: #ff7f0e; stroke-linejoin: miter"/>
     <use xlink:href="#m919dc234cf" x="254.134951" y="80.128847" style="fill: #ff7f0e; stroke: #ff7f0e; stroke-linejoin: miter"/>
     <use xlink:href="#m919dc234cf" x="305.408517" y="79.636594" style="fill: #ff7f0e; stroke: #ff7f0e; stroke-linejoin: miter"/>
     <use xlink:href="#m919dc234cf" x="356.682084" y="78.284551" style="fill: #ff7f0e; stroke: #ff7f0e; stroke-linejoin: miter"/>
     <use xlink:href="#m919dc234cf" x="407.95565" y="78.580339" style="fill: #ff7f0e; stroke: #ff7f0e; stroke-linejoin: miter"/>
     <use xlink:href="#m919dc234cf" x="459.229217" y="79.161504" style="fill: #ff7f0e; stroke: #ff7f0e; stroke-linejoin: miter"/>
     <use xlink:href="#m919dc234cf" x="510.502783" y="74.905238" style="fill: #ff7f0e; stroke: #ff7f0e; stroke-linejoin: miter"/>
     <use xlink:href="#m919dc234cf" x="561.77635" y="77.279762" style="fill: #ff7f0e; stroke: #ff7f0e; stroke-linejoin: miter"/>
     <use xlink:href="#m919dc234cf" x="613.049916" y="68.504317" style="fill: #ff7f0e; stroke: #ff7f0e; stroke-linejoin: miter"/>
     <use xlink:href="#m919dc234cf" x="664.323483" y="71.684699" style="fill: #ff7f0e; stroke: #ff7f0e; stroke-linejoin: miter"/>
     <use xlink:href="#m919dc234cf" x="715.597049" y="59.671464" style="fill: #ff7f0e; stroke: #ff7f0e; stroke-linejoin: miter"/>
     <use xlink:href="#m919dc234cf" x="766.870615" y="61.893897" style="fill: #ff7f0e; stroke: #ff7f0e; stroke-linejoin: miter"/>
     <use xlink:href="#m919dc234cf" x="818.144182" y="59.621679" style="fill: #ff7f0e; stroke: #ff7f0e; stroke-linejoin: miter"/>
    </g>
   </g>
   <g id="line2d_41">
    <path d="M 151.587818 82.928567 
L 202.861385 82.246832 
L 254.134951 80.525902 
L 305.408517 79.213432 
L 356.682084 74.950938 
L 407.95565 75.502125 
L 459.229217 78.614213 
L 510.502783 76.738598 
L 561.77635 77.575739 
L 613.049916 72.00848 
L 664.323483 71.959427 
L 715.597049 70.187763 
L 766.870615 71.633233 
L 818.144182 68.292949 
" clip-path="url(#pad36d22a55)" style="fill: none; stroke-dasharray: 3.7,1.6; stroke-dashoffset: 0; stroke: #2ca02c"/>
    <defs>
     <path id="m2352884cfc" d="M 0 -3.5 
L -0.785799 -1.081559 
L -3.328698 -1.081559 
L -1.271449 0.413119 
L -2.057248 2.831559 
L -0 1.336881 
L 2.057248 2.831559 
L 1.271449 0.413119 
L 3.328698 -1.081559 
L 0.785799 -1.081559 
z
" style="stroke: #2ca02c; stroke-linejoin: bevel"/>
    </defs>
    <g clip-path="url(#pad36d22a55)">
     <use xlink:href="#m2352884cfc" x="151.587818" y="82.928567" style="fill: #2ca02c; stroke: #2ca02c; stroke-linejoin: bevel"/>
     <use xlink:href="#m2352884cfc" x="202.861385" y="82.246832" style="fill: #2ca02c; stroke: #2ca02c; stroke-linejoin: bevel"/>
     <use xlink:href="#m2352884cfc" x="254.134951" y="80.525902" style="fill: #2ca02c; stroke: #2ca02c; stroke-linejoin: bevel"/>
     <use xlink:href="#m2352884cfc" x="305.408517" y="79.213432" style="fill: #2ca02c; stroke: #2ca02c; stroke-linejoin: bevel"/>
     <use xlink:href="#m2352884cfc" x="356.682084" y="74.950938" style="fill: #2ca02c; stroke: #2ca02c; stroke-linejoin: bevel"/>
     <use xlink:href="#m2352884cfc" x="407.95565" y="75.502125" style="fill: #2ca02c; stroke: #2ca02c; stroke-linejoin: bevel"/>
     <use xlink:href="#m2352884cfc" x="459.229217" y="78.614213" style="fill: #2ca02c; stroke: #2ca02c; stroke-linejoin: bevel"/>
     <use xlink:href="#m2352884cfc" x="510.502783" y="76.738598" style="fill: #2ca02c; stroke: #2ca02c; stroke-linejoin: bevel"/>
     <use xlink:href="#m2352884cfc" x="561.77635" y="77.575739" style="fill: #2ca02c; stroke: #2ca02c; stroke-linejoin: bevel"/>
     <use xlink:href="#m2352884cfc" x="613.049916" y="72.00848" style="fill: #2ca02c; stroke: #2ca02c; stroke-linejoin: bevel"/>
     <use xlink:href="#m2352884cfc" x="664.323483" y="71.959427" style="fill: #2ca02c; stroke: #2ca02c; stroke-linejoin: bevel"/>
     <use xlink:href="#m2352884cfc" x="715.597049" y="70.187763" style="fill: #2ca02c; stroke: #2ca02c; stroke-linejoin: bevel"/>
     <use xlink:href="#m2352884cfc" x="766.870615" y="71.633233" style="fill: #2ca02c; stroke: #2ca02c; stroke-linejoin: bevel"/>
     <use xlink:href="#m2352884cfc" x="818.144182" y="68.292949" style="fill: #2ca02c; stroke: #2ca02c; stroke-linejoin: bevel"/>
    </g>
   </g>
   <g id="line2d_42">
    <path d="M 151.587818 82.961617 
L 202.861385 82.148256 
L 254.134951 80.432494 
L 305.408517 79.787387 
L 356.682084 77.850502 
L 407.95565 76.756382 
L 459.229217 81.126281 
L 510.502783 77.125337 
L 561.77635 76.239589 
L 613.049916 78.584721 
L 664.323483 69.496073 
L 715.597049 69.571835 
L 766.870615 59.772951 
L 818.144182 46.568698 
" clip-path="url(#pad36d22a55)" style="fill: none; stroke-dasharray: 3.7,1.6; stroke-dashoffset: 0; stroke: #d62728"/>
    <defs>
     <path id="m00d88cd0bc" d="M 0 -3.5 
L -3.328698 -1.081559 
L -2.057248 2.831559 
L 2.057248 2.831559 
L 3.328698 -1.081559 
z
" style="stroke: #d62728; stroke-linejoin: miter"/>
    </defs>
    <g clip-path="url(#pad36d22a55)">
     <use xlink:href="#m00d88cd0bc" x="151.587818" y="82.961617" style="fill: #d62728; stroke: #d62728; stroke-linejoin: miter"/>
     <use xlink:href="#m00d88cd0bc" x="202.861385" y="82.148256" style="fill: #d62728; stroke: #d62728; stroke-linejoin: miter"/>
     <use xlink:href="#m00d88cd0bc" x="254.134951" y="80.432494" style="fill: #d62728; stroke: #d62728; stroke-linejoin: miter"/>
     <use xlink:href="#m00d88cd0bc" x="305.408517" y="79.787387" style="fill: #d62728; stroke: #d62728; stroke-linejoin: miter"/>
     <use xlink:href="#m00d88cd0bc" x="356.682084" y="77.850502" style="fill: #d62728; stroke: #d62728; stroke-linejoin: miter"/>
     <use xlink:href="#m00d88cd0bc" x="407.95565" y="76.756382" style="fill: #d62728; stroke: #d62728; stroke-linejoin: miter"/>
     <use xlink:href="#m00d88cd0bc" x="459.229217" y="81.126281" style="fill: #d62728; stroke: #d62728; stroke-linejoin: miter"/>
     <use xlink:href="#m00d88cd0bc" x="510.502783" y="77.125337" style="fill: #d62728; stroke: #d62728; stroke-linejoin: miter"/>
     <use xlink:href="#m00d88cd0bc" x="561.77635" y="76.239589" style="fill: #d62728; stroke: #d62728; stroke-linejoin: miter"/>
     <use xlink:href="#m00d88cd0bc" x="613.049916" y="78.584721" style="fill: #d62728; stroke: #d62728; stroke-linejoin: miter"/>
     <use xlink:href="#m00d88cd0bc" x="664.323483" y="69.496073" style="fill: #d62728; stroke: #d62728; stroke-linejoin: miter"/>
     <use xlink:href="#m00d88cd0bc" x="715.597049" y="69.571835" style="fill: #d62728; stroke: #d62728; stroke-linejoin: miter"/>
     <use xlink:href="#m00d88cd0bc" x="766.870615" y="59.772951" style="fill: #d62728; stroke: #d62728; stroke-linejoin: miter"/>
     <use xlink:href="#m00d88cd0bc" x="818.144182" y="46.568698" style="fill: #d62728; stroke: #d62728; stroke-linejoin: miter"/>
    </g>
   </g>
   <g id="line2d_43">
    <path d="M 151.587818 252.707945 
L 202.861385 252.939323 
L 254.134951 253.743538 
L 305.408517 250.61072 
L 356.682084 251.97256 
L 407.95565 251.631786 
L 459.229217 253.023844 
L 510.502783 249.168741 
L 561.77635 249.420787 
L 613.049916 245.562522 
L 664.323483 252.207661 
L 715.597049 254.2428 
L 766.870615 238.795598 
L 818.144182 251.748108 
" clip-path="url(#pad36d22a55)" style="fill: none; stroke-dasharray: 3.7,1.6; stroke-dashoffset: 0; stroke: #9467bd"/>
    <defs>
     <path id="m8a5049110f" d="M 0 3.5 
C 0.928211 3.5 1.81853 3.131218 2.474874 2.474874 
C 3.131218 1.81853 3.5 0.928211 3.5 0 
C 3.5 -0.928211 3.131218 -1.81853 2.474874 -2.474874 
C 1.81853 -3.131218 0.928211 -3.5 0 -3.5 
C -0.928211 -3.5 -1.81853 -3.131218 -2.474874 -2.474874 
C -3.131218 -1.81853 -3.5 -0.928211 -3.5 0 
C -3.5 0.928211 -3.131218 1.81853 -2.474874 2.474874 
C -1.81853 3.131218 -0.928211 3.5 0 3.5 
z
" style="stroke: #9467bd"/>
    </defs>
    <g clip-path="url(#pad36d22a55)">
     <use xlink:href="#m8a5049110f" x="151.587818" y="252.707945" style="fill: #9467bd; stroke: #9467bd"/>
     <use xlink:href="#m8a5049110f" x="202.861385" y="252.939323" style="fill: #9467bd; stroke: #9467bd"/>
     <use xlink:href="#m8a5049110f" x="254.134951" y="253.743538" style="fill: #9467bd; stroke: #9467bd"/>
     <use xlink:href="#m8a5049110f" x="305.408517" y="250.61072" style="fill: #9467bd; stroke: #9467bd"/>
     <use xlink:href="#m8a5049110f" x="356.682084" y="251.97256" style="fill: #9467bd; stroke: #9467bd"/>
     <use xlink:href="#m8a5049110f" x="407.95565" y="251.631786" style="fill: #9467bd; stroke: #9467bd"/>
     <use xlink:href="#m8a5049110f" x="459.229217" y="253.023844" style="fill: #9467bd; stroke: #9467bd"/>
     <use xlink:href="#m8a5049110f" x="510.502783" y="249.168741" style="fill: #9467bd; stroke: #9467bd"/>
     <use xlink:href="#m8a5049110f" x="561.77635" y="249.420787" style="fill: #9467bd; stroke: #9467bd"/>
     <use xlink:href="#m8a5049110f" x="613.049916" y="245.562522" style="fill: #9467bd; stroke: #9467bd"/>
     <use xlink:href="#m8a5049110f" x="664.323483" y="252.207661" style="fill: #9467bd; stroke: #9467bd"/>
     <use xlink:href="#m8a5049110f" x="715.597049" y="254.2428" style="fill: #9467bd; stroke: #9467bd"/>
     <use xlink:href="#m8a5049110f" x="766.870615" y="238.795598" style="fill: #9467bd; stroke: #9467bd"/>
     <use xlink:href="#m8a5049110f" x="818.144182" y="251.748108" style="fill: #9467bd; stroke: #9467bd"/>
    </g>
   </g>
   <g id="patch_3">
    <path d="M 118.26 264.6504 
L 118.26 35.6832 
" style="fill: none; stroke: #000000; stroke-width: 0.8; stroke-linejoin: miter; stroke-linecap: square"/>
   </g>
   <g id="patch_4">
    <path d="M 851.472 264.6504 
L 851.472 35.6832 
" style="fill: none; stroke: #000000; stroke-width: 0.8; stroke-linejoin: miter; stroke-linecap: square"/>
   </g>
   <g id="patch_5">
    <path d="M 118.26 264.6504 
L 851.472 264.6504 
" style="fill: none; stroke: #000000; stroke-width: 0.8; stroke-linejoin: miter; stroke-linecap: square"/>
   </g>
   <g id="patch_6">
    <path d="M 118.26 35.6832 
L 851.472 35.6832 
" style="fill: none; stroke: #000000; stroke-width: 0.8; stroke-linejoin: miter; stroke-linecap: square"/>
   </g>
   <g id="legend_1">
    <g id="patch_7">
     <path d="M 858.80412 112.073825 
L 975.711933 112.073825 
L 975.711933 35.6832 
L 858.80412 35.6832 
z
" style="fill: #ffffff; opacity: 0.8; stroke: #cccccc; stroke-linejoin: miter"/>
    </g>
    <g id="line2d_44">
     <path d="M 862.80412 43.781637 
L 882.80412 43.781637 
" style="fill: none; stroke-dasharray: 3.7,1.6; stroke-dashoffset: 0; stroke: #1f77b4"/>
    </g>
    <g id="line2d_45">
     <g>
      <use xlink:href="#mfe3fdeaed1" x="872.80412" y="43.781637" style="fill: #1f77b4; stroke: #1f77b4"/>
     </g>
    </g>
    <g id="text_22">
     <!-- 50 parked cars -->
     <g transform="translate(890.80412 47.281637)scale(0.1 -0.1)">
      <defs>
       <path id="DejaVuSans-70" d="M 1159 525 
L 1159 -1331 
L 581 -1331 
L 581 3500 
L 1159 3500 
L 1159 2969 
Q 1341 3281 1617 3432 
Q 1894 3584 2278 3584 
Q 2916 3584 3314 3078 
Q 3713 2572 3713 1747 
Q 3713 922 3314 415 
Q 2916 -91 2278 -91 
Q 1894 -91 1617 61 
Q 1341 213 1159 525 
z
M 3116 1747 
Q 3116 2381 2855 2742 
Q 2594 3103 2138 3103 
Q 1681 3103 1420 2742 
Q 1159 2381 1159 1747 
Q 1159 1113 1420 752 
Q 1681 391 2138 391 
Q 2594 391 2855 752 
Q 3116 1113 3116 1747 
z
" transform="scale(0.015625)"/>
       <path id="DejaVuSans-61" d="M 2194 1759 
Q 1497 1759 1228 1600 
Q 959 1441 959 1056 
Q 959 750 1161 570 
Q 1363 391 1709 391 
Q 2188 391 2477 730 
Q 2766 1069 2766 1631 
L 2766 1759 
L 2194 1759 
z
M 3341 1997 
L 3341 0 
L 2766 0 
L 2766 531 
Q 2569 213 2275 61 
Q 1981 -91 1556 -91 
Q 1019 -91 701 211 
Q 384 513 384 1019 
Q 384 1609 779 1909 
Q 1175 2209 1959 2209 
L 2766 2209 
L 2766 2266 
Q 2766 2663 2505 2880 
Q 2244 3097 1772 3097 
Q 1472 3097 1187 3025 
Q 903 2953 641 2809 
L 641 3341 
Q 956 3463 1253 3523 
Q 1550 3584 1831 3584 
Q 2591 3584 2966 3190 
Q 3341 2797 3341 1997 
z
" transform="scale(0.015625)"/>
       <path id="DejaVuSans-72" d="M 2631 2963 
Q 2534 3019 2420 3045 
Q 2306 3072 2169 3072 
Q 1681 3072 1420 2755 
Q 1159 2438 1159 1844 
L 1159 0 
L 581 0 
L 581 3500 
L 1159 3500 
L 1159 2956 
Q 1341 3275 1631 3429 
Q 1922 3584 2338 3584 
Q 2397 3584 2469 3576 
Q 2541 3569 2628 3553 
L 2631 2963 
z
" transform="scale(0.015625)"/>
       <path id="DejaVuSans-6b" d="M 581 4863 
L 1159 4863 
L 1159 1991 
L 2875 3500 
L 3609 3500 
L 1753 1863 
L 3688 0 
L 2938 0 
L 1159 1709 
L 1159 0 
L 581 0 
L 581 4863 
z
" transform="scale(0.015625)"/>
      </defs>
      <use xlink:href="#DejaVuSans-35"/>
      <use xlink:href="#DejaVuSans-30" x="63.623047"/>
      <use xlink:href="#DejaVuSans-20" x="127.246094"/>
      <use xlink:href="#DejaVuSans-70" x="159.033203"/>
      <use xlink:href="#DejaVuSans-61" x="222.509766"/>
      <use xlink:href="#DejaVuSans-72" x="283.789062"/>
      <use xlink:href="#DejaVuSans-6b" x="324.902344"/>
      <use xlink:href="#DejaVuSans-65" x="379.1875"/>
      <use xlink:href="#DejaVuSans-64" x="440.710938"/>
      <use xlink:href="#DejaVuSans-20" x="504.1875"/>
      <use xlink:href="#DejaVuSans-63" x="535.974609"/>
      <use xlink:href="#DejaVuSans-61" x="590.955078"/>
      <use xlink:href="#DejaVuSans-72" x="652.234375"/>
      <use xlink:href="#DejaVuSans-73" x="693.347656"/>
     </g>
    </g>
    <g id="line2d_46">
     <path d="M 862.80412 58.459762 
L 882.80412 58.459762 
" style="fill: none; stroke-dasharray: 3.7,1.6; stroke-dashoffset: 0; stroke: #ff7f0e"/>
    </g>
    <g id="line2d_47">
     <g>
      <use xlink:href="#m919dc234cf" x="872.80412" y="58.459762" style="fill: #ff7f0e; stroke: #ff7f0e; stroke-linejoin: miter"/>
     </g>
    </g>
    <g id="text_23">
     <!-- 100 parked cars -->
     <g transform="translate(890.80412 61.959762)scale(0.1 -0.1)">
      <use xlink:href="#DejaVuSans-31"/>
      <use xlink:href="#DejaVuSans-30" x="63.623047"/>
      <use xlink:href="#DejaVuSans-30" x="127.246094"/>
      <use xlink:href="#DejaVuSans-20" x="190.869141"/>
      <use xlink:href="#DejaVuSans-70" x="222.65625"/>
      <use xlink:href="#DejaVuSans-61" x="286.132812"/>
      <use xlink:href="#DejaVuSans-72" x="347.412109"/>
      <use xlink:href="#DejaVuSans-6b" x="388.525391"/>
      <use xlink:href="#DejaVuSans-65" x="442.810547"/>
      <use xlink:href="#DejaVuSans-64" x="504.333984"/>
      <use xlink:href="#DejaVuSans-20" x="567.810547"/>
      <use xlink:href="#DejaVuSans-63" x="599.597656"/>
      <use xlink:href="#DejaVuSans-61" x="654.578125"/>
      <use xlink:href="#DejaVuSans-72" x="715.857422"/>
      <use xlink:href="#DejaVuSans-73" x="756.970703"/>
     </g>
    </g>
    <g id="line2d_48">
     <path d="M 862.80412 73.137887 
L 882.80412 73.137887 
" style="fill: none; stroke-dasharray: 3.7,1.6; stroke-dashoffset: 0; stroke: #2ca02c"/>
    </g>
    <g id="line2d_49">
     <g>
      <use xlink:href="#m2352884cfc" x="872.80412" y="73.137887" style="fill: #2ca02c; stroke: #2ca02c; stroke-linejoin: bevel"/>
     </g>
    </g>
    <g id="text_24">
     <!-- 150 parked cars -->
     <g transform="translate(890.80412 76.637887)scale(0.1 -0.1)">
      <use xlink:href="#DejaVuSans-31"/>
      <use xlink:href="#DejaVuSans-35" x="63.623047"/>
      <use xlink:href="#DejaVuSans-30" x="127.246094"/>
      <use xlink:href="#DejaVuSans-20" x="190.869141"/>
      <use xlink:href="#DejaVuSans-70" x="222.65625"/>
      <use xlink:href="#DejaVuSans-61" x="286.132812"/>
      <use xlink:href="#DejaVuSans-72" x="347.412109"/>
      <use xlink:href="#DejaVuSans-6b" x="388.525391"/>
      <use xlink:href="#DejaVuSans-65" x="442.810547"/>
      <use xlink:href="#DejaVuSans-64" x="504.333984"/>
      <use xlink:href="#DejaVuSans-20" x="567.810547"/>
      <use xlink:href="#DejaVuSans-63" x="599.597656"/>
      <use xlink:href="#DejaVuSans-61" x="654.578125"/>
      <use xlink:href="#DejaVuSans-72" x="715.857422"/>
      <use xlink:href="#DejaVuSans-73" x="756.970703"/>
     </g>
    </g>
    <g id="line2d_50">
     <path d="M 862.80412 87.816012 
L 882.80412 87.816012 
" style="fill: none; stroke-dasharray: 3.7,1.6; stroke-dashoffset: 0; stroke: #d62728"/>
    </g>
    <g id="line2d_51">
     <g>
      <use xlink:href="#m00d88cd0bc" x="872.80412" y="87.816012" style="fill: #d62728; stroke: #d62728; stroke-linejoin: miter"/>
     </g>
    </g>
    <g id="text_25">
     <!-- 200 parked cars -->
     <g transform="translate(890.80412 91.316012)scale(0.1 -0.1)">
      <use xlink:href="#DejaVuSans-32"/>
      <use xlink:href="#DejaVuSans-30" x="63.623047"/>
      <use xlink:href="#DejaVuSans-30" x="127.246094"/>
      <use xlink:href="#DejaVuSans-20" x="190.869141"/>
      <use xlink:href="#DejaVuSans-70" x="222.65625"/>
      <use xlink:href="#DejaVuSans-61" x="286.132812"/>
      <use xlink:href="#DejaVuSans-72" x="347.412109"/>
      <use xlink:href="#DejaVuSans-6b" x="388.525391"/>
      <use xlink:href="#DejaVuSans-65" x="442.810547"/>
      <use xlink:href="#DejaVuSans-64" x="504.333984"/>
      <use xlink:href="#DejaVuSans-20" x="567.810547"/>
      <use xlink:href="#DejaVuSans-63" x="599.597656"/>
      <use xlink:href="#DejaVuSans-61" x="654.578125"/>
      <use xlink:href="#DejaVuSans-72" x="715.857422"/>
      <use xlink:href="#DejaVuSans-73" x="756.970703"/>
     </g>
    </g>
    <g id="line2d_52">
     <path d="M 862.80412 102.494137 
L 882.80412 102.494137 
" style="fill: none; stroke-dasharray: 3.7,1.6; stroke-dashoffset: 0; stroke: #9467bd"/>
    </g>
    <g id="line2d_53">
     <g>
      <use xlink:href="#m8a5049110f" x="872.80412" y="102.494137" style="fill: #9467bd; stroke: #9467bd"/>
     </g>
    </g>
    <g id="text_26">
     <!-- local -->
     <g transform="translate(890.80412 105.994137)scale(0.1 -0.1)">
      <defs>
       <path id="DejaVuSans-6c" d="M 603 4863 
L 1178 4863 
L 1178 0 
L 603 0 
L 603 4863 
z
" transform="scale(0.015625)"/>
      </defs>
      <use xlink:href="#DejaVuSans-6c"/>
      <use xlink:href="#DejaVuSans-6f" x="27.783203"/>
      <use xlink:href="#DejaVuSans-63" x="88.964844"/>
      <use xlink:href="#DejaVuSans-61" x="143.945312"/>
      <use xlink:href="#DejaVuSans-6c" x="205.224609"/>
     </g>
    </g>
   </g>
  </g>
 </g>
 <defs>
  <clipPath id="pad36d22a55">
   <rect x="118.26" y="35.6832" width="733.212" height="228.9672"/>
  </clipPath>
 </defs>
</svg>
